<svg xmlns="http://www.w3.org/2000/svg" xmlns:xlink="http://www.w3.org/1999/xlink" version="1.1" x="0px" y="0px" viewBox="0 0 100 125" style="enable-background:new 0 0 100 100;" xml:space="preserve">
  <path d="M88.6,46.2L76.5,35.6V19.8c0-2.3-1.8-4.1-4-4.1H63c-2.3,0-4.1,1.8-4.1,4.1l-6.3-5.2c-0.7-0.6-1.6-1-2.6-1  c-1,0-1.9,0.3-2.6,1L11.3,46.2c-1.2,1.1-1.7,2.8-1.1,4.3c0.6,1.5,2,2.5,3.7,2.5H19c0,0.8,0,29.4,0,29.4c0,2.2,1.8,4,4,4h16.2  c2.2,0,4-1.8,4-4v-18c0-0.1,0.1-0.3,0.1-0.3h13.3c0.1,0,0.1,0.1,0.1,0.3v18c0,2.2,1.8,4,4,4h16.2c2.2,0,4-1.8,4-4c0,0,0-28.6,0-29.4  h5.1c1.6,0,3.1-1,3.6-2.5C90.3,49,89.9,47.3,88.6,46.2z M86.2,49.2C86.2,49.2,86.1,49.2,86.2,49.2l-9.2,0c0,0,0.3,25.1,0.3,33.2  c0,0.1-0.1,0.1-0.2,0.1H60.8c-0.1,0-0.2,0-0.2-0.1v-18c0-2.2-1.8-4.1-4-4.1H43.4c-2.2,0-4,1.9-4,4.1v18c0,0.1-0.1,0.1-0.1,0.1H23  c0,0-0.2,0-0.2-0.1c0-8.1,0.1-33.2,0.1-33.2h-9c0,0-0.1,0-0.1,0c0-0.1,0-0.1,0-0.1l36.1-31.6c0,0,0,0,0.1,0c0,0,0,0,0,0l12.6,11.1  v-8.8c0-0.2,0.2-0.3,0.3-0.3h9.5c0.1,0,0.3,0.2,0.3,0.3v17.6L86.2,49.2C86.2,49.1,86.2,49.1,86.2,49.2z" />
</svg>
