<svg xmlns="http://www.w3.org/2000/svg" xmlns:xlink="http://www.w3.org/1999/xlink" version="1.1" baseProfile="tiny" x="0px" y="0px" viewBox="0 0 24 30" overflow="scroll" xml:space="preserve">
  <path d="M22.9806023,9.895874L12.5261354,0.8623047c-0.2821655-0.2438354-0.6316528-0.3649902-0.9805298-0.3649902  c-0.3717041,0-0.7426758,0.1374512-1.03125,0.4105225L9.013257,2.3284912V2.0009155c0-0.8284302-0.6715698-1.5-1.5-1.5h-1.5  c-0.8284302,0-1.5,0.6715698-1.5,1.5v4.5862427l-3.5442505,3.354248c-0.446106,0.4221802-0.5897217,1.0736694-0.3625488,1.6443481  c0.2272339,0.5706787,0.7794189,0.9451294,1.3936157,0.9451294h1.477478v9.4718018c0,0.8284302,0.6715698,1.5,1.5,1.5h14.0357046  c0.8284302,0,1.5-0.6715698,1.5-1.5v-9.4718018h1.4866333c0.6266479,0,1.1871948-0.3895264,1.4058228-0.9768066  C23.624279,10.9667969,23.4547234,10.305603,22.9806023,9.895874z M10.013257,22.0009155v-6h4v6H10.013257z M19.0132561,11.0308838  v10.9718018h-3.5001822c0-0.0006104,0.0001831-0.0011597,0.0001831-0.00177v-6c0-0.8284302-0.6715698-1.5-1.5-1.5h-4  c-0.8284302,0-1.5,0.6715698-1.5,1.5v6c0,0.0006104,0.0001831,0.0011597,0.0001831,0.00177H4.9775515V11.0308838h-2.977478  L6.013257,7.2328491V2.0009155h1.5v3.8123779l4.0321655-3.815979l10.4544668,9.0335693H19.0132561z" />
</svg>
