<svg xmlns="http://www.w3.org/2000/svg" viewBox="0 0 48 60" x="0px" y="0px">
  <title>Ui vol.1</title>
  <g data-name="Layer 25">
    <path d="M6.09766,46.313a1,1,0,0,0,.771.36328H35.37842a1.00007,1.00007,0,0,0,.98193-1.189l-2.5459-13.23883c.0011-.01941.01123-.03588.01123-.0556a.98175.98175,0,0,0-.104-.42688l-1.76221-9.16376,3.35907-3.39184a3.41827,3.41827,0,0,0,1.83039.49664A3.75055,3.75055,0,0,0,40.895,15.96094a3.94281,3.94281,0,0,0-.49365-1.83887l1.437-1.437A.99989.99989,0,0,0,40.42432,11.271L38.9826,12.71271a3.414,3.414,0,0,0-1.83367-.49884,3.7516,3.7516,0,0,0-3.74707,3.74707,3.9385,3.9385,0,0,0,.496,1.8421l-2.39606,2.41931L28.168,2.88623a.99975.99975,0,0,0-.98193-.811H15.061a.99976.99976,0,0,0-.98194.811L8.52539,31.766a.98175.98175,0,0,0-.104.42688c0,.01972.01013.03619.01123.0556L5.88672,45.4873A.99891.99891,0,0,0,6.09766,46.313ZM37.14893,14.21387a1.50217,1.50217,0,0,1,1.21386.53027.96348.96348,0,0,0,.10938.09473,1.5488,1.5488,0,0,1,.42285,1.12207A1.748,1.748,0,0,1,37.14893,17.707a1.50517,1.50517,0,0,1-1.21582-.53125,1.02457,1.02457,0,0,0-.10743-.09277,1.54852,1.54852,0,0,1-.42382-1.12207A1.749,1.749,0,0,1,37.14893,14.21387Zm-5.574,16.979H24.36279v-.92L30.254,24.32422Zm-20.90283,0L15.15479,7.88379h2.72949V31.19287Zm9.21216-14.228h2.47851V19.771H19.88428Zm2.47851-2H19.88428V12.15869h2.47851ZM19.88428,21.771h2.47851v2.80615H19.88428Zm2.47851-11.61231H19.88428V7.88379h2.47851ZM19.88428,26.57715h2.47851v2.87317L20.637,31.19287h-.75274Zm4.47851.8537V7.88379h2.7295l2.704,14.06061ZM26.35986,4.0752l.34784,1.80859H15.53937l.34784-1.80859ZM10.28748,33.19287H31.95959L34.168,44.67627H8.0791Z" />
  </g>
</svg>
